<?xml version="1.0" encoding="utf-8"?>
<!-- Generator: Adobe Illustrator 22.1.0, SVG Export Plug-In . SVG Version: 6.00 Build 0)  -->
<svg version="1.1" id="Layer_1" xmlns="http://www.w3.org/2000/svg" xmlns:xlink="http://www.w3.org/1999/xlink" x="0px" y="0px"
	 viewBox="0 0 169.8 155.1" style="enable-background:new 0 0 169.8 155.1;" xml:space="preserve">
<style type="text/css">
	.st0{fill:#FFFFFF;}
</style>
<path class="st0" d="M139.9,74.7c-2-4.3-10.2-25.4-39.8-25.4c-16.3,0-27.4,6.6-32.7,10.6v-6c4.6-3.5,13-10.6,21.9-20.8
	c4.3-5,7.1-8.8,9.3-11.8c0.1-0.1,0.1-0.2,0.2-0.3c-0.1,0.8-0.1,1.5-0.1,2.3c0,11.8,9.6,21.4,21.4,21.4c11.8,0,21.4-9.6,21.4-21.4
	c0-11.8-9.6-21.4-21.4-21.4c-8.9,0-16.5,5.5-19.7,13.2c-1.1,1.3-2.3,2.9-3.6,4.7c-2.2,3-4.9,6.7-9.2,11.6
	c-7.9,9.1-15.4,15.7-20.1,19.4V16c0.8-5.7,5.9-10.2,11.8-10.2V3.3H1.7v2.5c6,0,11,4.4,11.8,10.2v120.9c-0.5,6-5.7,10.7-11.8,10.7
	v4.5h11.8v0h54v0H85v-4.6c-0.1,0-0.1,0-0.2,0c-8.9,0-16.3-6.7-17.3-15.2V64.6c19.6,10,24,48.2,26.5,60.5c1.4,7.1,11.5,28.7,36,28.7
	c36.2,0,38.3-35.8,38.3-35.8C150.8,127.7,147.8,92.8,139.9,74.7z"/>
</svg>
