<?xml version="1.0" encoding="utf-8"?>
<!-- Generator: Adobe Illustrator 22.1.0, SVG Export Plug-In . SVG Version: 6.00 Build 0)  -->
<svg version="1.1" id="Layer_1" xmlns="http://www.w3.org/2000/svg" xmlns:xlink="http://www.w3.org/1999/xlink" x="0px" y="0px"
	 viewBox="0 0 1400 350" style="enable-background:new 0 0 1400 350;" xml:space="preserve">
<style type="text/css">
	.st0{fill:#333333;}
	.st1{fill:none;}
	.st2{fill:#FFFFFF;}
	.st3{font-family:'Butler-ExtraBold';}
	.st4{font-size:72px;}
	.st5{font-family:'Butler';}
	.st6{font-size:31.2px;}
	.st7{fill:none;stroke:#FFFFFF;stroke-miterlimit:10;}
	.st8{fill:#E8F3EC;}
	.st9{fill:#1D1D1B;}
</style>
<rect x="0" y="-0.1" class="st0" width="1400" height="350"/>
<rect x="112" y="121.5" class="st1" width="887" height="114.5"/>
<text transform="matrix(1 0 0 1 112 175.1777)"><tspan x="0" y="0" class="st2 st3 st4">Haphazard</tspan><tspan x="0" y="51.6" class="st2 st5 st6">Thoughts of a Data Scientist</tspan></text>
<path class="st2" d="M1297.1,172.5c-1.4-2.9-6.9-17.2-26.9-17.2c-11,0-18.5,4.4-22.1,7.2v-4.1c3.1-2.4,8.8-7.1,14.8-14.1
	c2.9-3.4,4.8-5.9,6.3-8c0-0.1,0.1-0.1,0.1-0.2c-0.1,0.5-0.1,1-0.1,1.6c0,8,6.5,14.4,14.4,14.4c8,0,14.4-6.5,14.4-14.4
	c0-8-6.5-14.4-14.4-14.4c-6,0-11.2,3.7-13.3,8.9c-0.8,0.9-1.5,1.9-2.4,3.2c-1.5,2-3.3,4.5-6.2,7.9c-5.3,6.2-10.4,10.6-13.6,13.1
	v-23.6c0.5-3.9,4-6.9,8-6.9v-1.7h-52.5v1.7c4,0,7.4,3,8,6.9v81.7c-0.4,4.1-3.8,7.3-8,7.3v3.1h8v0h36.5v0h11.9v-3.1
	c-0.1,0-0.1,0-0.2,0c-6,0-11-4.5-11.7-10.3v-45.8c13.2,6.8,16.2,32.6,17.9,40.9c1,4.8,7.8,19.4,24.3,19.4
	c24.5,0,25.9-24.2,25.9-24.2C1304.4,208.3,1302.4,184.7,1297.1,172.5z"/>
<line class="st7" x1="1104.5" y1="-18" x2="1104.5" y2="378"/>
</svg>
